# Blender v2.80 (sub 59) OBJ File: ''
# www.blender.org
o Plane
v -1.700000 0.000000 -1.700000
v -2.000000 0.000000 -2.000000
v -1.700000 0.000000 -2.000000
v -2.000000 0.000000 -1.700000
v -1.700000 0.116964 -1.700000
v -1.700000 0.116964 -2.000000
v -2.000000 0.116964 -2.000000
v -2.000000 0.116964 -1.700000
v 1.700000 0.000000 -1.700000
v 2.000000 0.000000 -2.000000
v 1.700000 0.000000 -2.000000
v 0.000000 0.000000 -1.700000
v 2.000000 0.000000 -1.700000
v 0.000000 0.000000 -2.000000
v 1.700000 0.116964 -1.700000
v 0.000000 0.116964 -1.700000
v 0.000000 0.116964 -2.000000
v 1.700000 0.116964 -2.000000
v 2.000000 0.116964 -2.000000
v 2.000000 0.116964 -1.700000
v -1.700000 0.000000 1.700000
v -1.700000 0.000000 0.000000
v -2.000000 0.000000 2.000000
v -1.700000 0.000000 2.000000
v -2.000000 0.000000 0.000000
v -2.000000 0.000000 1.700000
v -1.700000 0.116964 0.000000
v -1.700000 0.116964 1.700000
v -1.700000 0.116964 2.000000
v -2.000000 0.116964 2.000000
v -2.000000 0.116964 1.700000
v -2.000000 0.116964 0.000000
v 1.700000 0.000000 1.700000
v 1.700000 0.000000 0.000000
v 2.000000 0.000000 2.000000
v 1.700000 0.000000 2.000000
v 2.000000 0.000000 0.000000
v 0.000000 0.000000 1.700000
v 2.000000 0.000000 1.700000
v 0.000000 0.000000 2.000000
v 1.700000 0.116964 0.000000
v 1.700000 0.116964 1.700000
v 0.000000 0.116964 1.700000
v 0.000000 0.116964 2.000000
v 1.700000 0.116964 2.000000
v 2.000000 0.116964 2.000000
v 2.000000 0.116964 1.700000
v 2.000000 0.116964 0.000000
vt 0.000000 0.925000
vt 0.075000 0.925000
vt 0.075000 1.000000
vt 0.000000 1.000000
vt 0.000000 0.925000
vt 0.000000 1.000000
vt 0.075000 1.000000
vt 0.075000 0.925000
vt 0.000000 0.500000
vt 0.075000 0.500000
vt 0.500000 1.000000
vt 0.500000 0.925000
vt 0.000000 0.500000
vt 0.075000 0.500000
vt 0.500000 0.925000
vt 0.500000 1.000000
vt 0.000000 0.925000
vt 0.000000 1.000000
vt 0.075000 1.000000
vt 0.075000 0.925000
vt 0.000000 0.925000
vt 0.075000 0.925000
vt 0.075000 1.000000
vt 0.000000 1.000000
vt 0.000000 0.500000
vt 0.075000 0.500000
vt 0.000000 0.500000
vt 0.075000 0.500000
vt 0.000000 0.925000
vt 0.000000 1.000000
vt 0.075000 1.000000
vt 0.075000 0.925000
vt 0.000000 0.925000
vt 0.075000 0.925000
vt 0.075000 1.000000
vt 0.000000 1.000000
vt 0.500000 0.925000
vt 0.500000 1.000000
vt 0.500000 1.000000
vt 0.500000 0.925000
vt 0.000000 0.925000
vt 0.075000 0.925000
vt 0.075000 1.000000
vt 0.000000 1.000000
vt 0.000000 0.925000
vt 0.000000 1.000000
vt 0.075000 1.000000
vt 0.075000 0.925000
vn 0.0000 1.0000 0.0000
vn 0.0000 -1.0000 0.0000
vn -1.0000 0.0000 0.0000
vn 0.0000 0.0000 -1.0000
vn 1.0000 0.0000 0.0000
vn 0.0000 0.0000 1.0000
s off
f 8/1/1 5/2/1 6/3/1 7/4/1
f 4/5/2 2/6/2 3/7/2 1/8/2
f 25/9/2 4/5/2 1/8/2 22/10/2
f 1/8/2 3/7/2 14/11/2 12/12/2
f 32/13/1 27/14/1 5/2/1 8/1/1
f 5/2/1 16/15/1 17/16/1 6/3/1
f 4/5/3 25/9/3 32/13/3 8/1/3
f 14/11/4 3/7/4 6/3/4 17/16/4
f 22/10/5 1/8/5 5/2/5 27/14/5
f 3/7/4 2/6/4 7/4/4 6/3/4
f 1/8/6 12/12/6 16/15/6 5/2/6
f 2/6/3 4/5/3 8/1/3 7/4/3
f 20/17/1 19/18/1 18/19/1 15/20/1
f 13/21/2 9/22/2 11/23/2 10/24/2
f 37/25/2 34/26/2 9/22/2 13/21/2
f 9/22/2 12/12/2 14/11/2 11/23/2
f 48/27/1 20/17/1 15/20/1 41/28/1
f 15/20/1 18/19/1 17/16/1 16/15/1
f 13/21/5 20/17/5 48/27/5 37/25/5
f 14/11/4 17/16/4 18/19/4 11/23/4
f 12/12/3 16/15/3 17/16/3 14/11/3
f 34/26/3 41/28/3 15/20/3 9/22/3
f 11/23/4 18/19/4 19/18/4 10/24/4
f 9/22/6 15/20/6 16/15/6 12/12/6
f 10/24/5 19/18/5 20/17/5 13/21/5
f 31/29/1 30/30/1 29/31/1 28/32/1
f 26/33/2 21/34/2 24/35/2 23/36/2
f 25/9/2 22/10/2 21/34/2 26/33/2
f 21/34/2 38/37/2 40/38/2 24/35/2
f 32/13/1 31/29/1 28/32/1 27/14/1
f 28/32/1 29/31/1 44/39/1 43/40/1
f 25/9/4 32/13/4 27/14/4 22/10/4
f 26/33/3 31/29/3 32/13/3 25/9/3
f 40/38/6 44/39/6 29/31/6 24/35/6
f 22/10/5 27/14/5 28/32/5 21/34/5
f 24/35/6 29/31/6 30/30/6 23/36/6
f 21/34/4 28/32/4 43/40/4 38/37/4
f 23/36/3 30/30/3 31/29/3 26/33/3
f 47/41/1 42/42/1 45/43/1 46/44/1
f 39/45/2 35/46/2 36/47/2 33/48/2
f 37/25/2 39/45/2 33/48/2 34/26/2
f 33/48/2 36/47/2 40/38/2 38/37/2
f 48/27/1 41/28/1 42/42/1 47/41/1
f 42/42/1 43/40/1 44/39/1 45/43/1
f 37/25/4 34/26/4 41/28/4 48/27/4
f 39/45/5 37/25/5 48/27/5 47/41/5
f 40/38/6 36/47/6 45/43/6 44/39/6
f 38/37/3 40/38/3 44/39/3 43/40/3
f 34/26/3 33/48/3 42/42/3 41/28/3
f 36/47/6 35/46/6 46/44/6 45/43/6
f 33/48/4 38/37/4 43/40/4 42/42/4
f 35/46/5 39/45/5 47/41/5 46/44/5
